<?xml version="1.0" encoding="utf-8"?>
<!-- Generator: Adobe Illustrator 16.0.0, SVG Export Plug-In . SVG Version: 6.00 Build 0)  -->
<!DOCTYPE svg PUBLIC "-//W3C//DTD SVG 1.0//EN" "http://www.w3.org/TR/2001/REC-SVG-20010904/DTD/svg10.dtd">
<svg version="1.0" xmlns="http://www.w3.org/2000/svg" xmlns:xlink="http://www.w3.org/1999/xlink" x="0px" y="0px" width="1400px"
	 height="980px" viewBox="0 0 1400 980" enable-background="new 0 0 1400 980" xml:space="preserve">
<g id="Background">
	<rect fill-rule="evenodd" clip-rule="evenodd" fill="#F8E7E7" width="1400" height="980"/>
</g>
<g id="Objects">
	<g>
		<g>
			<g>
				<g>
					<path fill-rule="evenodd" clip-rule="evenodd" fill="#FDF2F2" stroke="#474759" stroke-width="3" stroke-miterlimit="10" d="
						M1048.6,454.3c3.4,10.3,12.1,18.2,22.8,23c10.3,4.6,23,6.3,36.6,6.2c13.7-0.1,26.4-1.9,36.6-6.5c10.6-4.8,19.3-12.7,22.6-23
						c4.5-14,9.1-28,13.6-42c4.5-14,9.1-28,13.6-42c-29,0-57.9,0-86.9,0c-29,0-58,0-86.9,0c4.7,14.1,9.3,28.2,14,42.2
						C1039.3,426.1,1043.9,440.2,1048.6,454.3z"/>
					<g>
						<path fill-rule="evenodd" clip-rule="evenodd" fill="#FDF2F2" stroke="#474759" stroke-width="3" stroke-miterlimit="10" d="
							M1107.8,414L1107.8,414c-4.5,0-7.9,5-7.7,11c0.4,9.7,0.8,19.4,1.2,29.2c0.4,9.7,0.8,19.4,1.2,29.1c1.8,0.1,3.7,0.1,5.6,0.1
							c1.9,0,3.7,0,5.6-0.1c0.3-9.7,0.7-19.4,1-29.1c0.3-9.7,0.7-19.4,1-29.1C1115.7,419,1112.2,414,1107.8,414z"/>
						<path fill-rule="evenodd" clip-rule="evenodd" fill="#FDF2F2" stroke="#474759" stroke-width="3" stroke-miterlimit="10" d="
							M1083.3,411.1L1083.3,411.1c-4.5,0.1-7.4,5.3-6.5,11.4c1.5,9.9,2.9,19.7,4.4,29.5c1.5,9.8,2.9,19.7,4.4,29.5
							c3.6,0.7,7.5,1.2,11.4,1.5c-0.8-10.2-1.6-20.4-2.3-30.6c-0.8-10.2-1.6-20.4-2.3-30.6C1091.9,415.9,1087.8,411,1083.3,411.1z"
							/>
						<path fill-rule="evenodd" clip-rule="evenodd" fill="#FDF2F2" stroke="#474759" stroke-width="3" stroke-miterlimit="10" d="
							M1057.6,405.9L1057.6,405.9c-4.6,0.2-7,5.6-5.4,11.9c2.5,9.6,4.9,19.1,7.4,28.7c2.5,9.6,5,19.1,7.4,28.7
							c3.9,2.2,8.2,3.9,12.8,5.2c-2-10.6-3.9-21.2-5.9-31.7c-2-10.6-3.9-21.1-5.9-31.7C1066.9,410.6,1062.2,405.7,1057.6,405.9z"/>
						<path fill-rule="evenodd" clip-rule="evenodd" fill="#FDF2F2" stroke="#474759" stroke-width="3" stroke-miterlimit="10" d="
							M1059.9,470.2c-3.2-10.9-6.4-21.9-9.6-32.8c-3.2-10.9-6.4-21.9-9.6-32.8c-1.9-6.4-7.4-11.5-12.2-11.3
							c3.4,10.2,6.7,20.3,10.1,30.5c3.4,10.2,6.7,20.3,10.1,30.5C1050.6,460.5,1054.7,465.9,1059.9,470.2z"/>
						<path fill-rule="evenodd" clip-rule="evenodd" fill="#FDF2F2" stroke="#474759" stroke-width="3" stroke-miterlimit="10" d="
							M1186.9,393.1c-4.8-0.1-10.3,4.9-12.1,11.3c-3.2,10.9-6.3,21.8-9.4,32.7c-3.1,10.9-6.3,21.8-9.4,32.7
							c5.2-4.3,9.2-9.7,11.2-15.9c3.3-10.1,6.6-20.3,9.9-30.4C1180.4,413.4,1183.7,403.3,1186.9,393.1z"/>
						<path fill-rule="evenodd" clip-rule="evenodd" fill="#FDF2F2" stroke="#474759" stroke-width="3" stroke-miterlimit="10" d="
							M1157.8,405.7L1157.8,405.7c-4.6-0.2-9.3,4.7-10.4,10.9c-1.9,10.6-3.8,21.1-5.6,31.7c-1.9,10.6-3.8,21.1-5.6,31.7
							c4.6-1.3,8.9-3,12.7-5.2c2.4-9.5,4.8-19,7.2-28.6c2.4-9.5,4.8-19,7.2-28.6C1164.9,411.3,1162.5,405.9,1157.8,405.7z"/>
						<path fill-rule="evenodd" clip-rule="evenodd" fill="#FDF2F2" stroke="#474759" stroke-width="3" stroke-miterlimit="10" d="
							M1132.2,411L1132.2,411c-4.5-0.1-8.5,4.8-9,10.8c-0.7,10.2-1.4,20.4-2.1,30.6c-0.7,10.1-1.4,20.3-2.1,30.5
							c3.9-0.3,7.8-0.8,11.4-1.6c1.4-9.8,2.8-19.6,4.2-29.4c1.4-9.8,2.8-19.6,4.2-29.5C1139.7,416.3,1136.7,411.2,1132.2,411z"/>
					</g>
				</g>
				<path fill-rule="evenodd" clip-rule="evenodd" fill="#FDF2F2" stroke="#474759" stroke-width="3" stroke-miterlimit="10" d="
					M1107.6,279.7c-51.2,0-92.8,32.1-92.8,71.7c0,56.5,185.5,57.9,185.5,0C1200.4,311.8,1158.8,279.7,1107.6,279.7z"/>
				<path fill-rule="evenodd" clip-rule="evenodd" fill="#FDF2F2" stroke="#474759" stroke-width="3" stroke-miterlimit="10" d="
					M1107.2,273.6c-21.8,0-44.2,5.9-61,17.8c-8.3,5.9-16.9,16-21.4,24.1c-11,20.1,4.3,6.6,14.6,16.4c7.2,6.9-5.4,23.2,13.6,21.2
					c19.9-2.1,23.1-32.4,41.6-6c9.7,13.7,17.7,30.5,28.7,5.4c5.2-11.8,6.9-35.5,27.1-23c7,4.3,9.8,21.8,17.5,23.7
					c12.5,3,4.5-21.7,9-28.1c3.4-4.8,7.1,8.8,14.3,6.3c2.3-0.8,2.7-7,0.7-11.4C1179.8,293.7,1147.6,273.6,1107.2,273.6z"/>
				<g>
					<path fill-rule="evenodd" clip-rule="evenodd" fill="#FDF2F2" stroke="#474759" stroke-width="3" stroke-miterlimit="10" d="
						M1104.1,253.6c-7.7,0.3-15.7-1.8-22.1,6.1c-6.4,7.9-8.6,31.3,24.1,31.3c32.7,0,33.8-25.5,22.7-34.4
						C1117.6,247.5,1109.6,253.4,1104.1,253.6z"/>
					<path fill-rule="evenodd" clip-rule="evenodd" fill="#FDF2F2" stroke="#474759" stroke-width="3" stroke-miterlimit="10" d="
						M1104.3,254c-2,0.2-3.5,1.3-3.4,2.3c0.2,1,2,1.7,4,1.4c2-0.2,3.5-1.3,3.4-2.3C1108.1,254.4,1106.3,253.8,1104.3,254z"/>
					<path fill="#FDF2F2" stroke="#474759" stroke-width="3" stroke-miterlimit="10" d="M1103.6,256.6c0.3,1,1.2,1.3,2,1.2
						c0.8-0.2,1.3-1,1-2c-6.4-24.4-9.7-51.4-44.1-54.5c-4.3-0.4-5,5.1-0.7,5.4C1089.4,206.8,1096.3,227.9,1103.6,256.6z"/>
				</g>
			</g>
		</g>
		<g>
			<g>
				<g>
					<path fill-rule="evenodd" clip-rule="evenodd" fill="#FDF2F2" stroke="#474759" stroke-width="3" stroke-miterlimit="10" d="
						M786.6,454.3c3.4,10.3,12.1,18.2,22.8,23c10.3,4.6,23,6.3,36.6,6.2c13.7-0.1,26.4-1.9,36.6-6.5c10.6-4.8,19.3-12.7,22.6-23
						c4.5-14,9.1-28,13.6-42c4.5-14,9.1-28,13.6-42c-29,0-57.9,0-86.9,0c-29,0-58,0-86.9,0c4.7,14.1,9.3,28.2,14,42.2
						C777.3,426.1,782,440.2,786.6,454.3z"/>
					<g>
						<path fill-rule="evenodd" clip-rule="evenodd" fill="#FDF2F2" stroke="#474759" stroke-width="3" stroke-miterlimit="10" d="
							M845.8,414L845.8,414c-4.5,0-7.9,5-7.7,11c0.4,9.7,0.8,19.4,1.2,29.2c0.4,9.7,0.8,19.4,1.2,29.1c1.8,0.1,3.7,0.1,5.6,0.1
							c1.9,0,3.7,0,5.6-0.1c0.3-9.7,0.7-19.4,1-29.1c0.3-9.7,0.7-19.4,1-29.1C853.8,419,850.3,414,845.8,414z"/>
						<path fill-rule="evenodd" clip-rule="evenodd" fill="#FDF2F2" stroke="#474759" stroke-width="3" stroke-miterlimit="10" d="
							M821.3,411.1L821.3,411.1c-4.5,0.1-7.4,5.3-6.5,11.4c1.5,9.9,2.9,19.7,4.4,29.5c1.5,9.8,2.9,19.7,4.4,29.5
							c3.6,0.7,7.5,1.2,11.4,1.5c-0.8-10.2-1.6-20.4-2.3-30.6c-0.8-10.2-1.6-20.4-2.3-30.6C829.9,415.9,825.8,411,821.3,411.1z"/>
						<path fill-rule="evenodd" clip-rule="evenodd" fill="#FDF2F2" stroke="#474759" stroke-width="3" stroke-miterlimit="10" d="
							M795.7,405.9L795.7,405.9c-4.6,0.2-7,5.6-5.4,11.9c2.5,9.6,4.9,19.1,7.4,28.7c2.5,9.6,5,19.1,7.4,28.7
							c3.9,2.2,8.2,3.9,12.8,5.2c-2-10.6-3.9-21.2-5.9-31.7c-2-10.6-3.9-21.1-5.9-31.7C805,410.6,800.3,405.7,795.7,405.9z"/>
						<path fill-rule="evenodd" clip-rule="evenodd" fill="#FDF2F2" stroke="#474759" stroke-width="3" stroke-miterlimit="10" d="
							M797.9,470.2c-3.2-10.9-6.4-21.9-9.6-32.8c-3.2-10.9-6.4-21.9-9.6-32.8c-1.9-6.4-7.4-11.5-12.2-11.3
							c3.4,10.2,6.7,20.3,10.1,30.5c3.4,10.2,6.7,20.3,10.1,30.5C788.7,460.5,792.7,465.9,797.9,470.2z"/>
						<path fill-rule="evenodd" clip-rule="evenodd" fill="#FDF2F2" stroke="#474759" stroke-width="3" stroke-miterlimit="10" d="
							M925,393.1c-4.8-0.1-10.3,4.9-12.1,11.3c-3.2,10.9-6.3,21.8-9.4,32.7c-3.1,10.9-6.3,21.8-9.4,32.7c5.2-4.3,9.2-9.7,11.2-15.9
							c3.3-10.1,6.6-20.3,9.9-30.4C918.4,413.4,921.7,403.3,925,393.1z"/>
						<path fill-rule="evenodd" clip-rule="evenodd" fill="#FDF2F2" stroke="#474759" stroke-width="3" stroke-miterlimit="10" d="
							M895.9,405.7L895.9,405.7c-4.6-0.2-9.3,4.7-10.4,10.9c-1.9,10.6-3.8,21.1-5.7,31.7c-1.9,10.6-3.8,21.1-5.6,31.7
							c4.6-1.3,8.9-3,12.7-5.2c2.4-9.5,4.8-19,7.2-28.6c2.4-9.5,4.8-19,7.2-28.6C902.9,411.3,900.5,405.9,895.9,405.7z"/>
						<path fill-rule="evenodd" clip-rule="evenodd" fill="#FDF2F2" stroke="#474759" stroke-width="3" stroke-miterlimit="10" d="
							M870.3,411L870.3,411c-4.5-0.1-8.5,4.8-9,10.8c-0.7,10.2-1.4,20.4-2.1,30.6c-0.7,10.1-1.4,20.3-2.1,30.5
							c3.9-0.3,7.8-0.8,11.4-1.6c1.4-9.8,2.8-19.6,4.2-29.4c1.4-9.8,2.8-19.6,4.2-29.5C877.8,416.3,874.8,411.2,870.3,411z"/>
					</g>
				</g>
				<path fill-rule="evenodd" clip-rule="evenodd" fill="#FDF2F2" stroke="#474759" stroke-width="3" stroke-miterlimit="10" d="
					M845.6,281.3c-51.2,0-92.8,32.1-92.8,71.7c0,56.5,185.5,57.9,185.5,0C938.4,313.4,896.9,281.3,845.6,281.3z"/>
				<g>
					<path fill="#FDF2F2" stroke="#474759" stroke-width="3" stroke-miterlimit="10" d="M848.4,361.5c2.6,0,5.6-0.5,9.2-2
						c5.4-2.2,7.2-1.4,9.3-0.5c3.4,1.5,7,2.4,13.2-1.9c3.1-2.1,5.1-1.5,8.2-0.6c5.1,1.5,10.4,2.4,15-5.7c1.2-2.1,2.1-2.5,2.3-2.5
						c0.6-0.2,1.9,0.4,3,0.8c2,0.8,4.8,2,7.7,0.8c3.2-1.3,4.4-4.7,5.1-7.5c0.5-2.1,1-3.3,1.4-3.9c1,0.4,2.8,0.9,4.6,0.1
						c2.3-1,3-3.5,3.5-6c0.4-2.2,0.8-3.8,1.2-5c0.3,0.1,0.7,0.1,1,0.1c1.9-0.1,3.3-1.5,3.2-3.1c-0.4-4.4-3.3-5-4.5-5
						c-2.4-0.1-5.9,1.1-7.8,12.2c-0.1,0.3-0.1,0.6-0.2,0.9c-1.1-0.3-2.5-0.4-4,0.2c-2.4,1-3.9,3.4-5.2,8.4c-0.5,2-1,2.9-1.3,3.3
						c-0.5-0.1-1.2-0.4-1.7-0.6c-2.1-0.9-5-2.1-8.3-1.1c-2.5,0.7-4.5,2.5-6.2,5.5c-2.3,4-2.9,3.8-6.4,2.7c-3.5-1.1-8.8-2.6-14.9,1.6
						c-3.3,2.3-3.8,2-5.7,1.2c-3.5-1.5-7.6-2.7-15.4,0.5c-5.7,2.3-8.5,1.3-12.3,0c-4.1-1.5-9.1-3.3-17.4-1
						c-5.8,1.6-8.5-0.1-12.2-2.4c-3.8-2.3-8.4-5.3-16-3.1c-3.8,1.1-4.2,0.3-5.9-2.5c-1.5-2.5-4-6.7-10.8-5.6
						c-0.4,0.1-0.7,0.1-0.8,0.1c-0.3-0.6-0.4-2.1-0.4-3c-0.1-2.6-0.4-8-6.6-8.1c-0.6-0.5-1.6-2.5-1.5-4.5c0.1-3-1.1-6.9-3.7-8.1
						c-1.3-0.6-2.8-0.6-4,0.1c-2.1,1.1-2.2,3.5-2,5.6c0.1,1.3,1.3,2.3,2.8,2.6c0,2.7,1.1,6.3,3.5,8.4c1.5,1.3,3.1,1.7,4.3,1.7
						c0.2,0.6,0.3,1.8,0.3,2.6c0.1,2.5,0.3,5.6,3,7.3c1.7,1.1,3.8,1.4,6.4,1c1.4-0.2,1.6-0.3,3.3,2.5c1.7,2.8,4.8,8.1,14.3,5.4
						c4-1.1,6-0.1,9.7,2.2c3.9,2.5,9.3,5.8,18.5,3.2c5.7-1.6,8.8-0.5,12.5,0.8C842.1,360.5,844.9,361.5,848.4,361.5z"/>
				</g>
				<g>
					<path fill="#FDF2F2" stroke="#474759" stroke-width="3" stroke-miterlimit="10" d="M781.9,268c6,2.4,13.3,3.5,19.8,3.5
						c-5.6,4.9-7.1,10.7-5.8,16.5C791.3,281.4,786.7,274.7,781.9,268"/>
					<path fill="#FDF2F2" stroke="#474759" stroke-width="3" stroke-miterlimit="10" d="M810.8,269.2c-1.9,1-3.8,2.1-5.5,3.3
						c-0.1,0.1-0.3,0.2-0.4,0.3c-8.4-1-15.3-2-23-4.8c-4.1-5.6-8.2-11.2-12.4-16.7c9.3,3.9,20.7,5.2,30.9,4.1
						C803.8,260,807.3,264.6,810.8,269.2"/>
					<path fill="#FDF2F2" stroke="#474759" stroke-width="3" stroke-miterlimit="10" d="M751.1,228.4c0,0-0.1-0.1-0.1-0.1
						c0.5-7.3,8.9-12.4,17.3-12.1c6,8,12.8,15.5,19.3,23.2c-12.5-0.5-22.7-3.5-34-8C752.8,230.5,751.9,229.4,751.1,228.4"/>
					<path fill="#FDF2F2" stroke="#474759" stroke-width="3" stroke-miterlimit="10" d="M790.1,242.6c3.5,4.3,6.9,8.6,10.3,12.9
						c-11.3,0.3-21-1.6-31.6-5.1c-4.7-6.1-9.6-12.2-14.5-18.1c9.8,4.6,21.7,6.9,32.9,6.6C788.1,240.1,789.1,241.4,790.1,242.6"/>
				</g>
				<g>
					<path fill="#FDF2F2" stroke="#474759" stroke-width="3" stroke-miterlimit="10" d="M779.4,291.8c6.7,0.3,13.9-1,19.9-3.1
						c-3,6.3-1.7,12.1,2.1,17.1C794.1,301.1,786.8,296.4,779.4,291.8"/>
					<path fill="#FDF2F2" stroke="#474759" stroke-width="3" stroke-miterlimit="10" d="M806.6,283.6c-1.3,1.5-2.6,3.1-3.6,4.8
						c-0.1,0.1-0.2,0.3-0.2,0.4c-8.2,1.8-15.1,3-23.5,2.9c-6.3-3.9-12.7-7.7-19.1-11.5c10.4,0.7,21.5-1.8,30.4-6
						C796,277.4,801.3,280.5,806.6,283.6"/>
					<path fill="#FDF2F2" stroke="#474759" stroke-width="3" stroke-miterlimit="10" d="M732.8,265c0,0-0.1,0-0.2,0
						c-2.9-6.9,2.6-14.3,10.5-16.7c9.1,5.4,18.9,10.2,28.4,15.3c-11.7,3.6-22.6,4-35.1,3.4C735.3,266.4,734.1,265.7,732.8,265"/>
					<path fill="#FDF2F2" stroke="#474759" stroke-width="3" stroke-miterlimit="10" d="M775.3,265.6c5.2,2.9,10.3,5.8,15.4,8.7
						c-10.3,3.9-20.2,5.2-31.5,5.4c-7.2-4.1-14.4-8.2-21.7-12.1c11.2,1.1,23.2-0.5,33.4-4.4C772.4,264,773.9,264.8,775.3,265.6"/>
				</g>
				<path fill-rule="evenodd" clip-rule="evenodd" fill="#FDF2F2" stroke="#474759" stroke-width="3" stroke-miterlimit="10" d="
					M851,265.2c35.3,1.5,62.9,16.6,61.8,33.8c-1.1,17.2-30.6,30-65.9,28.5c-35.3-1.5-62.9-16.6-61.8-33.9
					C786.3,276.5,815.8,263.7,851,265.2z"/>
				<path fill-rule="evenodd" clip-rule="evenodd" fill="#FDF2F2" stroke="#474759" stroke-width="3" stroke-miterlimit="10" d="
					M838.3,257.7c31.2-2,57.5,8.7,58.9,23.9c1.3,15.2-22.9,29.3-54.1,31.3c-31.2,2-57.6-8.7-58.9-23.9
					C782.9,273.7,807.1,259.7,838.3,257.7z"/>
				<path fill-rule="evenodd" clip-rule="evenodd" fill="#FDF2F2" stroke="#474759" stroke-width="3" stroke-miterlimit="10" d="
					M826.5,245.9c-12.7,21.7,35,5.4,42.8,23.1c3.9,8.8-16.6,19.3-37.5,23.1C781.8,301.3,774.1,261.5,826.5,245.9z"/>
				<g>
					<path fill-rule="evenodd" clip-rule="evenodd" fill="#FDF2F2" stroke="#474759" stroke-width="3" stroke-miterlimit="10" d="
						M821.7,240.1c-7.7,0.3-15.7-1.8-22.1,6.1c-6.4,7.9-8.6,31.3,24.1,31.3c32.7,0,33.8-25.5,22.7-34.4
						C835.2,234,827.2,239.9,821.7,240.1z"/>
					<path fill-rule="evenodd" clip-rule="evenodd" fill="#FDF2F2" stroke="#474759" stroke-width="3" stroke-miterlimit="10" d="
						M821.9,240.5c-2,0.2-3.5,1.3-3.4,2.3c0.2,1,2,1.7,4,1.4c2-0.2,3.5-1.3,3.4-2.3C825.7,240.9,824,240.3,821.9,240.5z"/>
					<path fill="#FDF2F2" stroke="#474759" stroke-width="3" stroke-miterlimit="10" d="M821.2,243.1c0.3,1,1.2,1.3,2,1.2
						c0.8-0.2,1.3-1,1-2c-6.4-24.4-9.7-51.4-44.1-54.5c-4.3-0.4-5,5.1-0.7,5.4C807,193.3,813.9,214.4,821.2,243.1z"/>
				</g>
			</g>
		</g>
		<g>
			<g>
				<g>
					<path fill-rule="evenodd" clip-rule="evenodd" fill="#FDF2F2" stroke="#474759" stroke-width="3" stroke-miterlimit="10" d="
						M503.7,454.3c3.4,10.3,12.1,18.2,22.8,23c10.3,4.6,23,6.3,36.6,6.2c13.7-0.1,26.4-1.9,36.6-6.5c10.6-4.8,19.3-12.7,22.6-23
						c4.5-14,9.1-28,13.6-42c4.5-14,9.1-28,13.6-42c-29,0-57.9,0-86.9,0c-29,0-58,0-86.9,0c4.7,14.1,9.3,28.2,14,42.2
						C494.4,426.1,499.1,440.2,503.7,454.3z"/>
					<g>
						<path fill-rule="evenodd" clip-rule="evenodd" fill="#FDF2F2" stroke="#474759" stroke-width="3" stroke-miterlimit="10" d="
							M562.9,414L562.9,414c-4.5,0-7.9,5-7.7,11c0.4,9.7,0.8,19.4,1.2,29.2c0.4,9.7,0.8,19.4,1.2,29.1c1.8,0.1,3.7,0.1,5.6,0.1
							c1.9,0,3.7,0,5.6-0.1c0.3-9.7,0.7-19.4,1-29.1c0.3-9.7,0.7-19.4,1-29.1C570.9,419,567.4,414,562.9,414z"/>
						<path fill-rule="evenodd" clip-rule="evenodd" fill="#FDF2F2" stroke="#474759" stroke-width="3" stroke-miterlimit="10" d="
							M538.4,411.1L538.4,411.1c-4.5,0.1-7.4,5.3-6.5,11.4c1.5,9.9,2.9,19.7,4.4,29.5c1.5,9.8,2.9,19.7,4.4,29.5
							c3.6,0.7,7.5,1.2,11.4,1.5c-0.8-10.2-1.6-20.4-2.3-30.6c-0.8-10.2-1.6-20.4-2.3-30.6C547,415.9,542.9,411,538.4,411.1z"/>
						<path fill-rule="evenodd" clip-rule="evenodd" fill="#FDF2F2" stroke="#474759" stroke-width="3" stroke-miterlimit="10" d="
							M512.8,405.9L512.8,405.9c-4.6,0.2-7,5.6-5.4,11.9c2.5,9.6,4.9,19.1,7.4,28.7c2.5,9.6,5,19.1,7.4,28.7
							c3.9,2.2,8.2,3.9,12.8,5.2c-2-10.6-3.9-21.2-5.9-31.7c-2-10.6-3.9-21.1-5.9-31.7C522.1,410.6,517.4,405.7,512.8,405.9z"/>
						<path fill-rule="evenodd" clip-rule="evenodd" fill="#FDF2F2" stroke="#474759" stroke-width="3" stroke-miterlimit="10" d="
							M515.1,470.2c-3.2-10.9-6.4-21.9-9.6-32.8c-3.2-10.9-6.4-21.9-9.6-32.8c-1.9-6.4-7.4-11.5-12.2-11.3
							c3.4,10.2,6.7,20.3,10.1,30.5c3.4,10.2,6.7,20.3,10.1,30.5C505.8,460.5,509.8,465.9,515.1,470.2z"/>
						<path fill-rule="evenodd" clip-rule="evenodd" fill="#FDF2F2" stroke="#474759" stroke-width="3" stroke-miterlimit="10" d="
							M642.1,393.1c-4.8-0.1-10.3,4.9-12.1,11.3c-3.2,10.9-6.3,21.8-9.4,32.7c-3.1,10.9-6.3,21.8-9.4,32.7
							c5.2-4.3,9.2-9.7,11.2-15.9c3.3-10.1,6.6-20.3,9.9-30.4C635.5,413.4,638.8,403.3,642.1,393.1z"/>
						<path fill-rule="evenodd" clip-rule="evenodd" fill="#FDF2F2" stroke="#474759" stroke-width="3" stroke-miterlimit="10" d="
							M613,405.7L613,405.7c-4.6-0.2-9.3,4.7-10.4,10.9c-1.9,10.6-3.8,21.1-5.7,31.7c-1.9,10.6-3.8,21.1-5.7,31.7
							c4.6-1.3,8.9-3,12.7-5.2c2.4-9.5,4.8-19,7.2-28.6c2.4-9.5,4.8-19,7.2-28.6C620,411.3,617.6,405.9,613,405.7z"/>
						<path fill-rule="evenodd" clip-rule="evenodd" fill="#FDF2F2" stroke="#474759" stroke-width="3" stroke-miterlimit="10" d="
							M587.4,411L587.4,411c-4.5-0.1-8.6,4.8-9,10.8c-0.7,10.2-1.4,20.4-2.1,30.6c-0.7,10.1-1.4,20.3-2.1,30.5
							c3.9-0.3,7.8-0.8,11.4-1.6c1.4-9.8,2.8-19.6,4.2-29.4c1.4-9.8,2.8-19.6,4.2-29.5C594.9,416.3,591.9,411.2,587.4,411z"/>
					</g>
				</g>
				<path fill-rule="evenodd" clip-rule="evenodd" fill="#FDF2F2" stroke="#474759" stroke-width="3" stroke-miterlimit="10" d="
					M562.7,280.1c-51.2,0-92.8,32.1-92.8,71.7c0,56.5,185.5,57.9,185.5,0C655.5,312.2,614,280.1,562.7,280.1z"/>
				<path fill-rule="evenodd" clip-rule="evenodd" fill="#FDF2F2" stroke="#474759" stroke-width="3" stroke-miterlimit="10" d="
					M638.6,309.4c8.5,11,10.2,24.2,5.8,26.1c-11.5,5-17.5-24.5-33.7-17c-9.8,4.5,10.9,51-10.3,54.1c-17.1,2.6-14.3-27.7-14.5-35.4
					c-0.2-8-6.7-37.7-18.7-26.9c-6.6,5.9-3.4,24.3-4.9,32c-1.7,8.4-4.9,20-18.4,12.9c-14.7-7.7,4.7-30.3-11.1-35
					c-20.1-6-20.2,41.4-38.6,33.6c-20.4-8.7,27-46.5,12.6-52.6c-10.8-4.6-15.7,20.7-26,17.5c-4.1-1.3-0.9-5.8,3.5-11.5
					C521.8,259.4,599.6,259,638.6,309.4z"/>
				<g>
					<path fill="#FDF2F2" stroke="#474759" stroke-width="3" stroke-miterlimit="10" d="M552.2,249.6c0,0-4.6-6.5-13.5-11.2
						c-8.9-4.7-21.3-6.4-25.6-6.7c-4.3-0.3-6-0.2-6.2,0.9c-0.2,1,1.2,8.3,7.3,13.6c6.1,5.3,14.7,10,16.9,10.7
						c2.2,0.7,10.6,3.4,13.6,3.5c3.1,0.2,5.2,0.1,5.2,0.1s0.7-5.7,1.2-7.6L552.2,249.6z"/>
					<path fill="#FDF2F2" stroke="#474759" stroke-width="3" stroke-miterlimit="10" d="M539.9,258.7c0,0-9,0.8-17.8,5.7
						c-8.8,4.9-15.8,13.6-17.9,16.7c-2.1,3.2-2.7,4.5-1.6,5.1c1.1,0.6,9.5,2.5,17.8,0c8.3-2.4,17-7.1,18.6-8.5c1.7-1.4,8-6.7,9.5-9
						c1.4-2.3,2.3-3.9,2.3-3.9s-5.9-2.9-7.7-4.1L539.9,258.7z"/>
					<path fill="#FDF2F2" stroke="#474759" stroke-width="3" stroke-miterlimit="10" d="M542.5,256.5c3-10.1,15.2-16.3,27.3-13.8
						c12.1,2.5,19.5,12.7,16.5,22.9c-3,10.1-15.2,16.3-27.3,13.8C546.9,276.9,539.5,266.6,542.5,256.5z"/>
				</g>
			</g>
		</g>
		<g>
			<g>
				<g>
					<path fill-rule="evenodd" clip-rule="evenodd" fill="#FDF2F2" stroke="#474759" stroke-width="3" stroke-miterlimit="10" d="
						M503,743.4c3.4,10.2,12.1,18,22.8,22.7c10.3,4.5,23,6.2,36.6,6.1c13.7-0.1,26.4-1.9,36.6-6.5c10.6-4.8,19.3-12.6,22.6-22.8
						c4.5-13.9,9.1-27.7,13.6-41.6c4.5-13.9,9.1-27.7,13.6-41.6c-29,0-57.9,0-86.9,0c-29,0-58,0-86.9,0c4.7,14,9.3,27.9,14,41.8
						C493.7,715.5,498.4,729.5,503,743.4z"/>
					<g>
						<path fill-rule="evenodd" clip-rule="evenodd" fill="#FDF2F2" stroke="#474759" stroke-width="3" stroke-miterlimit="10" d="
							M562.2,703.5L562.2,703.5c-4.5,0-7.9,5-7.7,10.9c0.4,9.6,0.8,19.3,1.2,28.9c0.4,9.6,0.8,19.2,1.2,28.8
							c1.8,0.1,3.7,0.1,5.6,0.1c1.9,0,3.7,0,5.6-0.1c0.3-9.6,0.7-19.2,1-28.8c0.3-9.6,0.7-19.2,1-28.8
							C570.2,708.4,566.6,703.5,562.2,703.5z"/>
						<path fill-rule="evenodd" clip-rule="evenodd" fill="#FDF2F2" stroke="#474759" stroke-width="3" stroke-miterlimit="10" d="
							M537.7,700.6L537.7,700.6c-4.5,0.1-7.4,5.2-6.5,11.3c1.5,9.8,2.9,19.5,4.4,29.3c1.5,9.7,2.9,19.5,4.4,29.2
							c3.6,0.7,7.5,1.2,11.4,1.5c-0.8-10.1-1.6-20.2-2.3-30.3c-0.8-10.1-1.6-20.2-2.3-30.3C546.3,705.3,542.2,700.5,537.7,700.6z"/>
						<path fill-rule="evenodd" clip-rule="evenodd" fill="#FDF2F2" stroke="#474759" stroke-width="3" stroke-miterlimit="10" d="
							M512.1,695.4L512.1,695.4c-4.6,0.2-7,5.5-5.4,11.8c2.5,9.5,4.9,18.9,7.4,28.4c2.5,9.5,5,18.9,7.4,28.4
							c3.9,2.2,8.2,3.9,12.8,5.1c-2-10.5-3.9-20.9-5.9-31.4c-2-10.5-3.9-20.9-5.9-31.4C521.4,700.1,516.6,695.2,512.1,695.4z"/>
						<path fill-rule="evenodd" clip-rule="evenodd" fill="#FDF2F2" stroke="#474759" stroke-width="3" stroke-miterlimit="10" d="
							M514.3,759.1c-3.2-10.8-6.4-21.7-9.6-32.5c-3.2-10.8-6.4-21.7-9.6-32.5c-1.9-6.3-7.4-11.4-12.2-11.2
							c3.4,10.1,6.7,20.1,10.1,30.2c3.4,10.1,6.7,20.1,10.1,30.2C505.1,749.5,509.1,754.9,514.3,759.1z"/>
						<path fill-rule="evenodd" clip-rule="evenodd" fill="#FDF2F2" stroke="#474759" stroke-width="3" stroke-miterlimit="10" d="
							M641.4,682.8c-4.8-0.1-10.3,4.9-12.1,11.2c-3.2,10.8-6.3,21.6-9.4,32.3c-3.1,10.8-6.3,21.6-9.4,32.3
							c5.2-4.3,9.2-9.6,11.2-15.7c3.3-10,6.6-20.1,9.9-30.1C634.8,702.9,638.1,692.9,641.4,682.8z"/>
						<path fill-rule="evenodd" clip-rule="evenodd" fill="#FDF2F2" stroke="#474759" stroke-width="3" stroke-miterlimit="10" d="
							M612.3,695.3L612.3,695.3c-4.6-0.2-9.3,4.7-10.4,10.8c-1.9,10.5-3.8,20.9-5.7,31.4c-1.9,10.4-3.8,20.9-5.6,31.3
							c4.6-1.3,8.9-3,12.7-5.2c2.4-9.4,4.8-18.9,7.2-28.3c2.4-9.4,4.8-18.9,7.2-28.3C619.3,700.8,616.9,695.5,612.3,695.3z"/>
						<path fill-rule="evenodd" clip-rule="evenodd" fill="#FDF2F2" stroke="#474759" stroke-width="3" stroke-miterlimit="10" d="
							M586.7,700.6L586.7,700.6c-4.5-0.1-8.5,4.7-9,10.7c-0.7,10.1-1.4,20.2-2.1,30.3c-0.7,10-1.4,20.1-2.1,30.2
							c3.9-0.3,7.8-0.8,11.4-1.6c1.4-9.7,2.8-19.4,4.2-29.2c1.4-9.7,2.8-19.4,4.2-29.2C594.2,705.8,591.2,700.7,586.7,700.6z"/>
					</g>
				</g>
				<path fill-rule="evenodd" clip-rule="evenodd" fill="#FDF2F2" stroke="#474759" stroke-width="3" stroke-miterlimit="10" d="
					M562,569.6c-51.2,0-92.8,32.1-92.8,71.7c0,56.5,185.6,57.9,185.6,0C654.8,601.7,613.2,569.6,562,569.6z"/>
				<g>
					<path fill-rule="evenodd" clip-rule="evenodd" fill="#FDF2F2" stroke="#474759" stroke-width="3" stroke-miterlimit="10" d="
						M562,587.9c50.6,1.7,91.7,21.6,91.7,44.3c0,22.8-41,39.8-91.7,38.1c-50.6-1.7-91.7-21.6-91.7-44.3
						C470.3,603.2,511.4,586.1,562,587.9z"/>
					<path fill-rule="evenodd" clip-rule="evenodd" fill="#FDF2F2" stroke="#474759" stroke-width="3" stroke-miterlimit="10" d="
						M579.7,567.2c45.7,10,76,38.2,67.7,63.1c-8.3,24.9-52.2,37-97.9,27c-45.7-10-76-38.2-67.7-63.1
						C490.1,569.3,534,557.2,579.7,567.2z"/>
					<path fill-rule="evenodd" clip-rule="evenodd" fill="#FDF2F2" stroke="#474759" stroke-width="3" stroke-miterlimit="10" d="
						M584,551.1c39.6,9.9,66.1,35.2,59.1,56.5c-7,21.2-44.8,30.4-84.4,20.5c-39.6-9.9-66.1-35.2-59.1-56.5
						C506.6,550.3,544.4,541.2,584,551.1z"/>
					<path fill-rule="evenodd" clip-rule="evenodd" fill="#FDF2F2" stroke="#474759" stroke-width="3" stroke-miterlimit="10" d="
						M576,542.8c33.2,7.6,56.8,26.9,52.5,43.1c-4.2,16.3-34.6,23.3-67.8,15.8c-33.2-7.6-56.8-26.9-52.5-43.1
						C512.4,542.3,542.8,535.2,576,542.8z"/>
					<path fill-rule="evenodd" clip-rule="evenodd" fill="#FDF2F2" stroke="#474759" stroke-width="3" stroke-miterlimit="10" d="
						M575.7,527.3c-18.5,16.6,27.8,14.6,28.1,33.1c0.2,9.2-21,13.3-40.1,11.1C517.9,566.2,525.6,527.3,575.7,527.3z"/>
				</g>
				<g>
					<path fill="#FDF2F2" stroke="#474759" stroke-width="3" stroke-miterlimit="10" d="M553.4,523.9c0,0-4.8-6.4-13.9-10.9
						c-9.1-4.5-21.5-5.9-25.8-6.1c-4.3-0.2-6,0-6.2,1c-0.1,1,1.5,8.3,7.7,13.4c6.2,5.1,15,9.7,17.2,10.3c2.2,0.6,10.7,3.1,13.8,3.2
						c3.1,0.1,5.2,0,5.2,0s0.5-5.7,1-7.6L553.4,523.9z"/>
					<path fill="#FDF2F2" stroke="#474759" stroke-width="3" stroke-miterlimit="10" d="M541.4,533.3c0,0-8.9,1-17.6,6.1
						c-8.6,5.1-15.3,13.9-17.3,17.1c-2,3.2-2.5,4.6-1.5,5.1c1.1,0.5,9.6,2.3,17.8-0.4c8.2-2.6,16.7-7.5,18.4-8.9
						c1.6-1.4,7.8-6.9,9.2-9.2c1.4-2.3,2.2-4,2.2-4s-6-2.7-7.8-3.9L541.4,533.3z"/>
					<path fill="#FDF2F2" stroke="#474759" stroke-width="3" stroke-miterlimit="10" d="M544,531c2.7-10.2,14.7-16.6,26.8-14.4
						c12.2,2.2,19.9,12.3,17.2,22.5c-2.7,10.2-14.7,16.6-26.8,14.4C549,551.3,541.3,541.2,544,531z"/>
				</g>
			</g>
		</g>
		<g>
			<g>
				<g>
					<path fill-rule="evenodd" clip-rule="evenodd" fill="#FDF2F2" stroke="#474759" stroke-width="3" stroke-miterlimit="10" d="
						M1048,743.4c3.4,10.2,12.1,18,22.8,22.7c10.3,4.5,23,6.2,36.6,6.1c13.7-0.1,26.4-1.9,36.6-6.5c10.6-4.8,19.3-12.6,22.6-22.8
						c4.5-13.9,9.1-27.7,13.6-41.6c4.5-13.9,9.1-27.7,13.6-41.6c-29,0-57.9,0-86.9,0c-29,0-58,0-86.9,0c4.7,14,9.3,27.9,14,41.8
						C1038.7,715.5,1043.3,729.5,1048,743.4z"/>
					<g>
						<path fill-rule="evenodd" clip-rule="evenodd" fill="#FDF2F2" stroke="#474759" stroke-width="3" stroke-miterlimit="10" d="
							M1107.2,703.5L1107.2,703.5c-4.5,0-7.9,5-7.7,10.9c0.4,9.6,0.8,19.3,1.2,28.9c0.4,9.6,0.8,19.2,1.2,28.8
							c1.8,0.1,3.7,0.1,5.6,0.1c1.9,0,3.7,0,5.6-0.1c0.3-9.6,0.7-19.2,1-28.8c0.3-9.6,0.7-19.2,1-28.8
							C1115.1,708.4,1111.6,703.5,1107.2,703.5z"/>
						<path fill-rule="evenodd" clip-rule="evenodd" fill="#FDF2F2" stroke="#474759" stroke-width="3" stroke-miterlimit="10" d="
							M1082.7,700.6L1082.7,700.6c-4.5,0.1-7.4,5.2-6.5,11.3c1.5,9.8,2.9,19.5,4.4,29.3c1.5,9.7,2.9,19.5,4.4,29.2
							c3.6,0.7,7.5,1.2,11.4,1.5c-0.8-10.1-1.6-20.2-2.3-30.3c-0.8-10.1-1.6-20.2-2.3-30.3C1091.3,705.3,1087.2,700.5,1082.7,700.6z
							"/>
						<path fill-rule="evenodd" clip-rule="evenodd" fill="#FDF2F2" stroke="#474759" stroke-width="3" stroke-miterlimit="10" d="
							M1057,695.4L1057,695.4c-4.6,0.2-7,5.5-5.4,11.8c2.5,9.5,4.9,18.9,7.4,28.4c2.5,9.5,5,18.9,7.4,28.4c3.9,2.2,8.2,3.9,12.8,5.1
							c-2-10.5-3.9-21-5.9-31.4c-2-10.5-3.9-20.9-5.9-31.4C1066.3,700.1,1061.6,695.2,1057,695.4z"/>
						<path fill-rule="evenodd" clip-rule="evenodd" fill="#FDF2F2" stroke="#474759" stroke-width="3" stroke-miterlimit="10" d="
							M1059.3,759.1c-3.2-10.8-6.4-21.7-9.6-32.5c-3.2-10.8-6.4-21.7-9.6-32.5c-1.9-6.3-7.4-11.4-12.2-11.2
							c3.4,10.1,6.7,20.1,10.1,30.2c3.4,10.1,6.7,20.1,10.1,30.2C1050,749.5,1054.1,754.9,1059.3,759.1z"/>
						<path fill-rule="evenodd" clip-rule="evenodd" fill="#FDF2F2" stroke="#474759" stroke-width="3" stroke-miterlimit="10" d="
							M1186.3,682.8c-4.8-0.1-10.3,4.9-12.1,11.2c-3.2,10.8-6.3,21.6-9.4,32.3c-3.1,10.8-6.3,21.6-9.4,32.3
							c5.2-4.3,9.2-9.6,11.2-15.7c3.3-10,6.6-20.1,9.9-30.1C1179.8,702.9,1183,692.9,1186.3,682.8z"/>
						<path fill-rule="evenodd" clip-rule="evenodd" fill="#FDF2F2" stroke="#474759" stroke-width="3" stroke-miterlimit="10" d="
							M1157.2,695.3L1157.2,695.3c-4.6-0.2-9.3,4.7-10.4,10.8c-1.9,10.5-3.8,20.9-5.7,31.4c-1.9,10.4-3.8,20.9-5.6,31.3
							c4.6-1.3,8.9-3,12.7-5.2c2.4-9.4,4.8-18.9,7.2-28.3c2.4-9.4,4.8-18.9,7.2-28.3C1164.2,700.8,1161.8,695.5,1157.2,695.3z"/>
						<path fill-rule="evenodd" clip-rule="evenodd" fill="#FDF2F2" stroke="#474759" stroke-width="3" stroke-miterlimit="10" d="
							M1131.6,700.6L1131.6,700.6c-4.5-0.1-8.5,4.7-9,10.7c-0.7,10.1-1.4,20.2-2.1,30.3c-0.7,10.1-1.4,20.1-2.1,30.2
							c3.9-0.3,7.8-0.8,11.4-1.6c1.4-9.7,2.8-19.4,4.2-29.2c1.4-9.7,2.8-19.4,4.2-29.2C1139.1,705.8,1136.1,700.7,1131.6,700.6z"/>
					</g>
				</g>
				<path fill-rule="evenodd" clip-rule="evenodd" fill="#FDF2F2" stroke="#474759" stroke-width="3" stroke-miterlimit="10" d="
					M1107,570.6c-51.2,0-92.8,32.1-92.8,71.7c0,56.5,185.5,57.9,185.5,0C1199.7,602.6,1158.2,570.6,1107,570.6z"/>
				<path fill-rule="evenodd" clip-rule="evenodd" fill="#FDF2F2" stroke="#474759" stroke-width="3" stroke-miterlimit="10" d="
					M1015.7,629.8c-1.7,8.8,7.6,17.6,15.4,21.4c9,4.4,22.1,7.5,39.1,8.7c11.1,0.7,23.7,0.6,37.9-0.7c17.5-1.6,31.8-5.5,43-10.7
					c12.1-5.6,20.7-12.7,26-20c4.8-6.6,7-13.3,6.6-19.1c-0.4,0.5-0.9,1-1.4,1.4c-3.6,3.5-8.8,7-15.4,10c-18,8.4-46.6,13.7-79.2,6.9
					c-20.2-4.2-33.2-11.5-40.3-19.4c-3.1-3.5-5.2-7.1-6.2-10.7c-1-3.7-1-7.3,0-10.6c0.6-2,1.5-3.8,2.7-5.5
					c-4.5-12.4,7.7-29.9,39.6-39.4c-11.7,20,22.1,11.4,39.6,18.4c5.1,0.5,8.9,2.2,11.2,4.9c1.9,2.2,2.8,4.9,2.4,7.8
					c-0.3,2.7-1.6,5.5-3.9,8.3c-5.3,6.5-16.6,13.3-34.7,17.2c-16,3.5-30.8,1-40-3.6c-3.4-1.7-6.1-3.7-8-5.8
					c-0.3-0.2-0.6-0.4-0.8-0.7c-0.6,2.2-0.6,4.7,0.1,7.2c0.7,2.6,2.3,5.4,4.7,8.1c6.1,6.7,17.5,13,35.6,16.8
					c30.2,6.4,56.6,1.5,73.1-6.2c5.7-2.6,10.1-5.6,13.1-8.5c2.6-2.5,3.9-4.8,3.9-6.7c0-0.9-0.6-1.8-1.7-2.5
					c-1.8-1.2-2.1-3.4-0.7-4.9c1.4-1.5,4.1-1.8,5.9-0.6c2.5,1.7,4,3.7,4.6,6c0.2,0.2,0.4,0.4,0.6,0.7c1.8,2.7,2.9,5.8,3.3,9.2l0,0.1
					c0.9,7.5-1.5,16.2-7.7,24.6c-6,8.2-15.6,16.2-29.1,22.5c-12.1,5.6-27.4,9.8-46.1,11.5c-14.8,1.3-27.9,1.5-39.4,0.7
					c-16-1-29-3.9-38.6-7.8c0.5,0.3,1.1,0.7,1.6,1c22.1,13.1,50.4,17.7,82.1,19c85.6-0.7,81.1-44.5,80.6-57.3c0,1.1,5.3,6.7,6,8.7
					c1.3,3.6,1.3,7.7,1.1,11.3c-1.5,36.1-51.6,44.4-86.8,44.4c-32.7,0-63.4-6.4-87.4-20.6c-5.3-3.1-17.5-15.7-19.5-25.2
					C1007.6,635.5,1009.2,631.4,1015.7,629.8z"/>
				<g>
					<path fill-rule="evenodd" clip-rule="evenodd" fill="#FDF2F2" stroke="#474759" stroke-width="3" stroke-miterlimit="10" d="
						M1064.1,532.6c6-12.5,23.6-10.3,36.7-5.7c0.4,0.1,0.8,0.3,1.1,0.4c13.2,4.9,28,14.6,20.8,27c-7.2,12.4-33,24.2-46.4,19.2
						C1062.9,568.6,1057.9,545.5,1064.1,532.6z"/>
					<path fill-rule="evenodd" clip-rule="evenodd" fill="#FDF2F2" stroke="#474759" stroke-width="3" stroke-miterlimit="10" d="
						M1068.5,513.8c10.6,7.9,29.9-1,32.9,10c9.5-7.8,19.9-12.3,31.5-14.2c5.9-1,6.1,7.8,0,7.4c-9.7-0.5-14.9,4.1-24.2,10.6
						c11.5-6.1,13.2,10,27,11c-11.1,6.4-20.3,4.6-26.5,0.9c-0.2,3.1-0.1,6.4,2,8.9c-15-3.2-15.8-15.5-15.9-15.4
						C1086.3,540.1,1071.5,529.3,1068.5,513.8z"/>
				</g>
			</g>
		</g>
		<g>
			<g>
				<g>
					<path fill-rule="evenodd" clip-rule="evenodd" fill="#FDF2F2" stroke="#474759" stroke-width="3" stroke-miterlimit="10" d="
						M774.7,743.4c3.4,10.2,12.1,18,22.8,22.7c10.3,4.5,23,6.2,36.6,6.1c13.7-0.1,26.4-1.9,36.6-6.5c10.6-4.8,19.3-12.6,22.6-22.8
						c4.5-13.9,9.1-27.7,13.6-41.6c4.5-13.9,9.1-27.7,13.6-41.6c-29,0-57.9,0-86.9,0c-29,0-58,0-86.9,0c4.7,14,9.3,27.9,14,41.8
						C765.4,715.5,770.1,729.5,774.7,743.4z"/>
					<g>
						<path fill-rule="evenodd" clip-rule="evenodd" fill="#FDF2F2" stroke="#474759" stroke-width="3" stroke-miterlimit="10" d="
							M833.9,703.5L833.9,703.5c-4.5,0-7.9,5-7.7,10.9c0.4,9.6,0.8,19.3,1.2,28.9c0.4,9.6,0.8,19.2,1.2,28.8
							c1.8,0.1,3.7,0.1,5.6,0.1c1.9,0,3.7,0,5.6-0.1c0.3-9.6,0.7-19.2,1-28.8c0.3-9.6,0.7-19.2,1-28.8
							C841.9,708.4,838.3,703.5,833.9,703.5z"/>
						<path fill-rule="evenodd" clip-rule="evenodd" fill="#FDF2F2" stroke="#474759" stroke-width="3" stroke-miterlimit="10" d="
							M809.4,700.6L809.4,700.6c-4.5,0.1-7.4,5.2-6.5,11.3c1.5,9.8,2.9,19.5,4.4,29.3c1.5,9.7,2.9,19.5,4.4,29.2
							c3.6,0.7,7.5,1.2,11.4,1.5c-0.8-10.1-1.6-20.2-2.3-30.3c-0.8-10.1-1.6-20.2-2.3-30.3C818,705.3,813.9,700.5,809.4,700.6z"/>
						<path fill-rule="evenodd" clip-rule="evenodd" fill="#FDF2F2" stroke="#474759" stroke-width="3" stroke-miterlimit="10" d="
							M783.8,695.4L783.8,695.4c-4.6,0.2-7,5.5-5.4,11.8c2.5,9.5,4.9,18.9,7.4,28.4c2.5,9.5,5,18.9,7.4,28.4
							c3.9,2.2,8.2,3.9,12.8,5.1c-2-10.5-3.9-21-5.9-31.4c-2-10.5-3.9-20.9-5.9-31.4C793.1,700.1,788.4,695.2,783.8,695.4z"/>
						<path fill-rule="evenodd" clip-rule="evenodd" fill="#FDF2F2" stroke="#474759" stroke-width="3" stroke-miterlimit="10" d="
							M786,759.1c-3.2-10.8-6.4-21.7-9.6-32.5c-3.2-10.8-6.4-21.7-9.6-32.5c-1.9-6.3-7.4-11.4-12.2-11.2
							c3.4,10.1,6.7,20.1,10.1,30.2c3.4,10.1,6.7,20.1,10.1,30.2C776.8,749.5,780.8,754.9,786,759.1z"/>
						<path fill-rule="evenodd" clip-rule="evenodd" fill="#FDF2F2" stroke="#474759" stroke-width="3" stroke-miterlimit="10" d="
							M913.1,682.8c-4.8-0.1-10.3,4.9-12.1,11.2c-3.2,10.8-6.3,21.6-9.4,32.3c-3.1,10.8-6.3,21.6-9.4,32.3
							c5.2-4.3,9.2-9.6,11.2-15.7c3.3-10,6.6-20.1,9.9-30.1C906.5,702.9,909.8,692.9,913.1,682.8z"/>
						<path fill-rule="evenodd" clip-rule="evenodd" fill="#FDF2F2" stroke="#474759" stroke-width="3" stroke-miterlimit="10" d="
							M884,695.3L884,695.3c-4.6-0.2-9.3,4.7-10.4,10.8c-1.9,10.5-3.8,20.9-5.7,31.4c-1.9,10.4-3.8,20.9-5.6,31.3
							c4.6-1.3,8.9-3,12.7-5.2c2.4-9.4,4.8-18.9,7.2-28.3c2.4-9.4,4.8-18.9,7.2-28.3C891,700.8,888.6,695.5,884,695.3z"/>
						<path fill-rule="evenodd" clip-rule="evenodd" fill="#FDF2F2" stroke="#474759" stroke-width="3" stroke-miterlimit="10" d="
							M858.4,700.6L858.4,700.6c-4.5-0.1-8.5,4.7-9,10.7c-0.7,10.1-1.4,20.2-2.1,30.3c-0.7,10.1-1.4,20.1-2.1,30.2
							c3.9-0.3,7.8-0.8,11.4-1.6c1.4-9.7,2.8-19.4,4.2-29.2c1.4-9.7,2.8-19.4,4.2-29.2C865.9,705.8,862.9,700.7,858.4,700.6z"/>
					</g>
				</g>
				<path fill-rule="evenodd" clip-rule="evenodd" fill="#FDF2F2" stroke="#474759" stroke-width="3" stroke-miterlimit="10" d="
					M833.7,570.6c-51.2,0-92.8,32.1-92.8,71.7c0,56.5,185.5,57.9,185.5,0C926.5,602.7,884.9,570.6,833.7,570.6z"/>
				<path fill-rule="evenodd" clip-rule="evenodd" fill="#FDF2F2" stroke="#474759" stroke-width="3" stroke-miterlimit="10" d="
					M909.6,604.9c8.5,11,10.2,24.2,5.8,26.1c-11.5,5-3.3-24.5-19.5-17c-9.8,4.5,5.5,41.8-15.8,44.9c-17.1,2.6-23-18.5-23.3-26.2
					c-0.2-8-6.7-37.7-18.7-26.9c-6.6,5.9-3.4,24.3-4.9,32c-1.7,8.4-4.9,20-18.4,12.9c-14.7-7.7,4.7-30.3-11.1-35
					c-20.1-6-20.2,41.4-38.6,33.6c-20.4-8.7,27-46.5,12.6-52.6c-10.8-4.6-15.7,20.7-26,17.5c-4.1-1.3-0.9-5.8,3.5-11.5
					C792.8,554.9,870.6,554.5,909.6,604.9z"/>
				<path fill-rule="evenodd" clip-rule="evenodd" fill="#FDF2F2" stroke="#474759" stroke-width="3" stroke-miterlimit="10" d="
					M843.3,564.5c12.3,1.2,23.7,4.1,34.5,9.2c6.3,3,12.3,6.3,18,10c10.3,6.7-2.3,7.2-8.8,9.1c-13.8,4-0.4,25.7-14.2,21.7
					c-8-2.3-2.3-31.6-22.8-32.8c-23.2-1.3-12.8,19.2-25.5,19.2c-12.8,0-0.5-11.6-10.4-12.7c-12.1-1.3-11,5.4-18.9,4.4
					c-6.8-0.9-0.5-9.3-6.6-9.7c-7.6-0.6-20.5,11.2-24.9,9.1C757.8,589.1,801,560.2,843.3,564.5z"/>
				<g>
					<path fill-rule="evenodd" clip-rule="evenodd" fill="#FDF2F2" stroke="#474759" stroke-width="3" stroke-miterlimit="10" d="
						M835.7,531.1c-0.1,0-0.1-0.1-0.2-0.1c0.1-0.4,0.2-0.7,0.2-1.1c0-2.6-2.7-5-6.1-5.2c-3.4-0.3-6.1,1.7-6.1,4.3c0,0.1,0,0.3,0,0.4
						c-6.3,1.6-11.3,6.9-14.4,12c-0.1,0.2-0.3,0.4-0.4,0.7c-0.3,0.6-0.6,1.2-0.9,1.8c-0.4,0.5-0.9,1.1-1.2,1.7
						c-0.2,0.2-0.3,0.4-0.4,0.6c-3.3,5-5.7,11.4-3.7,16.7c-0.1,0.1-0.3,0.1-0.4,0.2c-2.6,1.5-2.9,4.5-0.7,6.7c2.2,2.2,6,2.7,8.6,1.2
						c0.4-0.2,0.7-0.5,1-0.8c0.1,0,0.1,0,0.2,0.1c-0.3,1.3,0.1,2.8,1.3,4c2.2,2.2,6,2.7,8.6,1.2c1.2-0.7,2-1.8,2.1-3
						c0.5,0,0.9,0,1.4,0.1c0.2,0.7,0.6,1.5,1.3,2.1c2.2,2.2,6,2.7,8.6,1.2c1.7-1,2.4-2.6,2.1-4.2c0.1,0,0.2,0,0.3-0.1
						c0.2,0.3,0.4,0.5,0.6,0.8c2.2,2.2,6,2.7,8.6,1.2c2.4-1.4,2.8-4,1.2-6.1c0.4-0.3,0.8-0.7,1.2-1c2.2,1.9,5.8,2.3,8.2,0.9
						c0.4-0.2,0.7-0.5,1-0.8l0.1,0c0.1-0.2,0.3-0.4,0.4-0.6c0.1-0.2,0.2-0.4,0.3-0.6l-0.1,0c0.1-0.4,0.2-0.8,0.2-1.2
						c0-2.5-2.4-4.7-5.5-5.2c0.1-0.4,0.3-0.9,0.3-1.4c3-0.1,5.3-1.9,5.3-4.3c0-2.6-2.7-5-6.1-5.2c-0.4,0-0.8,0-1.1,0
						c0-0.1-0.1-0.2-0.1-0.2c1.8-0.7,3-2.1,3-3.8c0-2.6-2.7-5-6.1-5.2c-1-0.1-1.9,0-2.8,0.3c-0.3-0.3-0.6-0.6-0.8-0.9
						c1-0.8,1.7-1.9,1.7-3.1c0-2.6-2.7-5-6.1-5.2C838.4,529.6,836.8,530.2,835.7,531.1z"/>
					<path fill-rule="evenodd" clip-rule="evenodd" fill="#FDF2F2" stroke="#474759" stroke-width="3" stroke-miterlimit="10" d="
						M825.2,513.4c-4.5,11.3-26.5,11.7-22.5,22.5c-12.9-2.8-24.5-2.3-35.8,0.9c-5.7,1.6-0.7,9.3,4.4,6.5c8-4.5,15.4-2.7,27.3-1
						c-13.6-0.5-5.5,14.2-16.8,20.8c13.4,0.8,20.3-4.6,23.4-10.4c2.1,2.6,3.9,5.5,3.5,8.5c11.1-9.1,4.4-20,4.5-20
						C825.6,543.7,831.9,528.1,825.2,513.4z"/>
				</g>
			</g>
		</g>
		<g>
			<g>
				<path fill-rule="evenodd" clip-rule="evenodd" fill="#FDF2F2" stroke="#474759" stroke-width="3" stroke-miterlimit="10" d="
					M231.3,743.4c3.4,10.2,12.1,18,22.8,22.7c10.3,4.5,23,6.2,36.6,6.1c13.7-0.1,26.4-1.9,36.6-6.5C338,761,346.6,753.2,350,743
					c4.5-13.9,9.1-27.7,13.6-41.6c4.5-13.9,9.1-27.7,13.6-41.6c-29,0-57.9,0-86.9,0c-29,0-58,0-86.9,0c4.7,14,9.3,27.9,14,41.8
					C222,715.5,226.7,729.5,231.3,743.4z"/>
				<g>
					<path fill-rule="evenodd" clip-rule="evenodd" fill="#FDF2F2" stroke="#474759" stroke-width="3" stroke-miterlimit="10" d="
						M290.5,703.5L290.5,703.5c-4.5,0-7.9,5-7.7,10.9c0.4,9.6,0.8,19.3,1.2,28.9c0.4,9.6,0.8,19.2,1.2,28.8c1.8,0.1,3.7,0.1,5.6,0.1
						c1.9,0,3.7,0,5.6-0.1c0.3-9.6,0.7-19.2,1-28.8c0.3-9.6,0.7-19.2,1-28.8C298.5,708.4,294.9,703.5,290.5,703.5z"/>
					<path fill-rule="evenodd" clip-rule="evenodd" fill="#FDF2F2" stroke="#474759" stroke-width="3" stroke-miterlimit="10" d="
						M266,700.6L266,700.6c-4.5,0.1-7.4,5.2-6.5,11.3c1.5,9.8,2.9,19.5,4.4,29.3c1.5,9.7,2.9,19.5,4.4,29.2
						c3.6,0.7,7.5,1.2,11.4,1.5c-0.8-10.1-1.6-20.2-2.3-30.3c-0.8-10.1-1.6-20.2-2.3-30.3C274.6,705.3,270.5,700.5,266,700.6z"/>
					<path fill-rule="evenodd" clip-rule="evenodd" fill="#FDF2F2" stroke="#474759" stroke-width="3" stroke-miterlimit="10" d="
						M240.4,695.4L240.4,695.4c-4.6,0.2-7,5.5-5.4,11.8c2.5,9.5,4.9,18.9,7.4,28.4c2.5,9.5,5,18.9,7.4,28.4
						c3.9,2.2,8.2,3.9,12.8,5.1c-2-10.5-3.9-20.9-5.9-31.4c-2-10.5-3.9-20.9-5.9-31.4C249.7,700.1,244.9,695.2,240.4,695.4z"/>
					<path fill-rule="evenodd" clip-rule="evenodd" fill="#FDF2F2" stroke="#474759" stroke-width="3" stroke-miterlimit="10" d="
						M242.6,759.1c-3.2-10.8-6.4-21.7-9.6-32.5c-3.2-10.8-6.4-21.7-9.6-32.5c-1.9-6.3-7.4-11.4-12.2-11.2
						c3.4,10.1,6.7,20.1,10.1,30.2c3.4,10.1,6.7,20.1,10.1,30.2C233.3,749.5,237.4,754.9,242.6,759.1z"/>
					<path fill-rule="evenodd" clip-rule="evenodd" fill="#FDF2F2" stroke="#474759" stroke-width="3" stroke-miterlimit="10" d="
						M369.7,682.8c-4.8-0.1-10.3,4.9-12.1,11.2c-3.2,10.8-6.3,21.6-9.4,32.3c-3.1,10.8-6.3,21.6-9.4,32.3c5.2-4.3,9.2-9.6,11.2-15.7
						c3.3-10,6.6-20.1,9.9-30.1C363.1,702.9,366.4,692.9,369.7,682.8z"/>
					<path fill-rule="evenodd" clip-rule="evenodd" fill="#FDF2F2" stroke="#474759" stroke-width="3" stroke-miterlimit="10" d="
						M340.6,695.3L340.6,695.3c-4.6-0.2-9.3,4.7-10.4,10.8c-1.9,10.5-3.8,20.9-5.7,31.4c-1.9,10.4-3.8,20.9-5.6,31.3
						c4.6-1.3,8.9-3,12.7-5.2c2.4-9.4,4.8-18.9,7.2-28.3c2.4-9.4,4.8-18.9,7.2-28.3C347.6,700.8,345.2,695.5,340.6,695.3z"/>
					<path fill-rule="evenodd" clip-rule="evenodd" fill="#FDF2F2" stroke="#474759" stroke-width="3" stroke-miterlimit="10" d="
						M315,700.6L315,700.6c-4.5-0.1-8.5,4.7-9,10.7c-0.7,10.1-1.4,20.2-2.1,30.3c-0.7,10-1.4,20.1-2.1,30.2
						c3.9-0.3,7.8-0.8,11.4-1.6c1.4-9.7,2.8-19.4,4.2-29.2c1.4-9.7,2.8-19.4,4.2-29.2C322.5,705.8,319.5,700.7,315,700.6z"/>
				</g>
			</g>
			<path fill-rule="evenodd" clip-rule="evenodd" fill="#FDF2F2" stroke="#474759" stroke-width="3" stroke-miterlimit="10" d="
				M290.3,569.6c-51.2,0-92.8,32.1-92.8,71.7c0,56.5,185.6,57.9,185.6,0C383.1,601.7,341.5,569.6,290.3,569.6z"/>
			<g>
				<path fill-rule="evenodd" clip-rule="evenodd" fill="#FDF2F2" stroke="#474759" stroke-width="3" stroke-miterlimit="10" d="
					M295.4,559c46.5,0.7,80.1,17.5,75.2,37.6c-4.9,20.1-46.6,35.9-93.1,35.2c-46.4-0.7-80.1-17.5-75.2-37.6
					C207.3,574.1,249,558.4,295.4,559z"/>
				<path fill-rule="evenodd" clip-rule="evenodd" fill="#FDF2F2" stroke="#474759" stroke-width="3" stroke-miterlimit="10" d="
					M297.6,546.2c40.4,1.6,69.9,16.8,65.8,33.9c-4.1,17.2-40.2,29.8-80.6,28.2c-40.4-1.6-69.9-16.8-65.8-33.9
					C221,557.3,257.1,544.6,297.6,546.2z"/>
				<path fill-rule="evenodd" clip-rule="evenodd" fill="#FDF2F2" stroke="#474759" stroke-width="3" stroke-miterlimit="10" d="
					M288.5,541.1c33.8,0.7,59.6,11.8,57.6,24.8c-2,13-31.1,22.9-64.9,22.2c-33.8-0.7-59.6-11.8-57.6-24.8
					C225.7,550.3,254.7,540.4,288.5,541.1z"/>
				<path fill-rule="evenodd" clip-rule="evenodd" fill="#FDF2F2" stroke="#474759" stroke-width="3" stroke-miterlimit="10" d="
					M286.2,529.4c-16.1,15.4,29.3,6.9,32.1,20.9c1.4,7-19,13.3-38.1,14.5C234.3,567.6,236.8,536.9,286.2,529.4z"/>
			</g>
			<g>
				<path fill="#FDF2F2" stroke="#474759" stroke-width="3" stroke-miterlimit="10" d="M290.4,660.7c2.6,0,5.6-0.5,9.2-2
					c5.4-2.2,7.2-1.4,9.3-0.5c3.4,1.5,7,2.4,13.2-1.9c3.1-2.1,5.1-1.5,8.2-0.6c5.1,1.5,10.4,2.4,15-5.7c1.2-2.1,2.1-2.5,2.3-2.5
					c0.6-0.2,1.9,0.4,3,0.8c2,0.8,4.8,2,7.7,0.8c3.2-1.3,4.4-4.7,5.1-7.5c0.5-2.1,1-3.3,1.4-3.9c1,0.4,2.8,0.9,4.6,0.1
					c2.3-1,3-3.5,3.5-6c0.4-2.2,0.8-3.8,1.2-5c0.3,0.1,0.7,0.1,1,0.1c1.9-0.1,3.3-1.5,3.2-3.1c-0.4-4.4-3.3-5-4.5-5
					c-2.4-0.1-5.9,1.1-7.8,12.2c-0.1,0.3-0.1,0.6-0.2,0.9c-1.1-0.3-2.5-0.4-4,0.2c-2.4,1-3.9,3.4-5.2,8.4c-0.5,2-1,2.9-1.3,3.3
					c-0.5-0.1-1.2-0.4-1.7-0.6c-2.1-0.9-5-2.1-8.3-1.1c-2.5,0.7-4.5,2.5-6.2,5.5c-2.3,4-2.9,3.8-6.4,2.7c-3.5-1.1-8.8-2.6-14.9,1.6
					c-3.3,2.3-3.8,2-5.7,1.2c-3.5-1.5-7.6-2.7-15.4,0.5c-5.7,2.3-8.5,1.3-12.3,0c-4.1-1.5-9.1-3.3-17.4-1c-5.8,1.6-8.5-0.1-12.2-2.4
					c-3.8-2.3-8.4-5.3-16-3.1c-3.8,1.1-4.2,0.3-5.9-2.5c-1.5-2.5-4-6.7-10.8-5.6c-0.4,0.1-0.7,0.1-0.8,0.1c-0.3-0.6-0.4-2.1-0.4-3
					c-0.1-2.6-0.4-8-6.6-8.1c-0.6-0.5-1.6-2.5-1.5-4.5c0.1-3-1.1-6.9-3.7-8.1c-1.3-0.6-2.8-0.6-4,0.1c-2.1,1.1-2.2,3.5-2,5.6
					c0.1,1.3,1.3,2.3,2.8,2.6c0,2.7,1.1,6.3,3.5,8.4c1.5,1.3,3.1,1.7,4.3,1.7c0.2,0.6,0.3,1.8,0.3,2.6c0.1,2.5,0.3,5.6,3,7.4
					c1.7,1.1,3.8,1.4,6.4,1c1.4-0.2,1.6-0.3,3.3,2.5c1.7,2.8,4.8,8.1,14.3,5.4c4-1.1,6-0.1,9.7,2.2c3.9,2.5,9.3,5.8,18.5,3.2
					c5.7-1.6,8.8-0.5,12.5,0.8C284.1,659.7,286.9,660.7,290.4,660.7z"/>
			</g>
		</g>
		<g>
			<g>
				<path fill-rule="evenodd" clip-rule="evenodd" fill="#FDF2F2" stroke="#474759" stroke-width="3" stroke-miterlimit="10" d="
					M231.3,454.6c3.4,10.2,12.1,18,22.8,22.7c10.3,4.5,23,6.2,36.6,6.1c13.7-0.1,26.4-1.9,36.6-6.5c10.6-4.8,19.3-12.6,22.6-22.8
					c4.5-13.9,9.1-27.7,13.6-41.6c4.5-13.9,9.1-27.7,13.6-41.6c-29,0-57.9,0-86.9,0c-29,0-58,0-86.9,0c4.7,13.9,9.3,27.9,14,41.8
					C222,426.7,226.7,440.6,231.3,454.6z"/>
				<g>
					<path fill-rule="evenodd" clip-rule="evenodd" fill="#FDF2F2" stroke="#474759" stroke-width="3" stroke-miterlimit="10" d="
						M290.5,414.7L290.5,414.7c-4.5,0-7.9,5-7.7,10.9c0.4,9.6,0.8,19.3,1.2,28.9c0.4,9.6,0.8,19.2,1.2,28.8c1.8,0.1,3.7,0.1,5.6,0.1
						c1.9,0,3.7,0,5.6-0.1c0.3-9.6,0.7-19.2,1-28.8c0.3-9.6,0.7-19.2,1-28.8C298.5,419.6,294.9,414.7,290.5,414.7z"/>
					<path fill-rule="evenodd" clip-rule="evenodd" fill="#FDF2F2" stroke="#474759" stroke-width="3" stroke-miterlimit="10" d="
						M266,411.8L266,411.8c-4.5,0.1-7.4,5.2-6.5,11.3c1.5,9.8,2.9,19.5,4.4,29.3c1.5,9.7,2.9,19.5,4.4,29.2
						c3.6,0.7,7.5,1.2,11.4,1.5c-0.8-10.1-1.6-20.2-2.3-30.3c-0.8-10.1-1.6-20.2-2.3-30.3C274.6,416.5,270.5,411.7,266,411.8z"/>
					<path fill-rule="evenodd" clip-rule="evenodd" fill="#FDF2F2" stroke="#474759" stroke-width="3" stroke-miterlimit="10" d="
						M240.4,406.6L240.4,406.6c-4.6,0.2-7,5.5-5.4,11.8c2.5,9.5,4.9,18.9,7.4,28.4c2.5,9.5,5,18.9,7.4,28.4
						c3.9,2.2,8.2,3.9,12.8,5.1c-2-10.5-3.9-20.9-5.9-31.4c-2-10.5-3.9-20.9-5.9-31.4C249.7,411.3,244.9,406.4,240.4,406.6z"/>
					<path fill-rule="evenodd" clip-rule="evenodd" fill="#FDF2F2" stroke="#474759" stroke-width="3" stroke-miterlimit="10" d="
						M242.6,470.3c-3.2-10.8-6.4-21.7-9.6-32.5c-3.2-10.8-6.4-21.7-9.6-32.5c-1.9-6.3-7.4-11.4-12.2-11.2
						c3.4,10.1,6.7,20.1,10.1,30.2c3.4,10.1,6.7,20.1,10.1,30.2C233.3,460.7,237.4,466.1,242.6,470.3z"/>
					<path fill-rule="evenodd" clip-rule="evenodd" fill="#FDF2F2" stroke="#474759" stroke-width="3" stroke-miterlimit="10" d="
						M369.7,394c-4.8-0.1-10.3,4.9-12.1,11.2c-3.2,10.8-6.3,21.6-9.4,32.3c-3.1,10.8-6.3,21.6-9.4,32.3c5.2-4.3,9.2-9.6,11.2-15.7
						c3.3-10,6.6-20.1,9.9-30.1C363.1,414.1,366.4,404.1,369.7,394z"/>
					<path fill-rule="evenodd" clip-rule="evenodd" fill="#FDF2F2" stroke="#474759" stroke-width="3" stroke-miterlimit="10" d="
						M340.6,406.5L340.6,406.5c-4.6-0.2-9.3,4.7-10.4,10.8c-1.9,10.5-3.8,20.9-5.7,31.4c-1.9,10.4-3.8,20.9-5.6,31.3
						c4.6-1.3,8.9-3,12.7-5.2c2.4-9.4,4.8-18.9,7.2-28.3c2.4-9.4,4.8-18.9,7.2-28.3C347.6,412,345.2,406.7,340.6,406.5z"/>
					<path fill-rule="evenodd" clip-rule="evenodd" fill="#FDF2F2" stroke="#474759" stroke-width="3" stroke-miterlimit="10" d="
						M315,411.7L315,411.7c-4.5-0.1-8.5,4.7-9,10.7c-0.7,10.1-1.4,20.2-2.1,30.3c-0.7,10-1.4,20.1-2.1,30.2
						c3.9-0.3,7.8-0.8,11.4-1.6c1.4-9.7,2.8-19.4,4.2-29.2c1.4-9.7,2.8-19.4,4.2-29.2C322.5,416.9,319.5,411.9,315,411.7z"/>
				</g>
			</g>
			<path fill-rule="evenodd" clip-rule="evenodd" fill="#FDF2F2" stroke="#474759" stroke-width="3" stroke-miterlimit="10" d="
				M290.3,280.8c-51.2,0-92.8,32.1-92.8,71.7c0,56.5,185.6,57.9,185.6,0C383.1,312.8,341.5,280.8,290.3,280.8z"/>
			<path fill-rule="evenodd" clip-rule="evenodd" fill="#FDF2F2" stroke="#474759" stroke-width="3" stroke-miterlimit="10" d="
				M370.1,307.4c8.5,11,10.2,24.2,5.8,26.1c-11.5,5-3.3-24.5-19.5-17c-9.8,4.5,5.5,41.8-15.8,44.9c-17.1,2.6-23-18.5-23.3-26.2
				c-0.2-8-6.7-37.7-18.7-26.9c-6.6,5.9-3.4,24.3-4.9,32c-1.7,8.4-4.9,20-18.4,12.9c-14.7-7.7,4.7-30.3-11.1-35
				c-20.1-6-20.2,41.4-38.6,33.6c-20.4-8.7,27-46.5,12.6-52.6c-10.8-4.6-15.7,20.7-26,17.5c-4.1-1.3-0.9-5.8,3.5-11.5
				C253.3,257.4,331.1,257.1,370.1,307.4z"/>
			<g>
				<path fill-rule="evenodd" clip-rule="evenodd" fill="#FDF2F2" stroke="#474759" stroke-width="3" stroke-miterlimit="10" d="
					M294.6,247.6c26.4,1.1,46.9,13.6,45.6,27.9c-1.2,14.3-23.7,25-50.1,23.9c-26.4-1.1-46.9-13.6-45.6-27.9
					C245.8,257.2,268.2,246.5,294.6,247.6z"/>
				<path fill-rule="evenodd" clip-rule="evenodd" fill="#FDF2F2" stroke="#474759" stroke-width="3" stroke-miterlimit="10" d="
					M288.3,243.4c22.1,0.4,39.8,9.5,39.5,20.3c-0.2,10.8-18.3,19.2-40.4,18.8c-22.1-0.4-39.8-9.5-39.5-20.3
					C248.2,251.4,266.3,243,288.3,243.4z"/>
				<path fill-rule="evenodd" clip-rule="evenodd" fill="#FDF2F2" stroke="#474759" stroke-width="3" stroke-miterlimit="10" d="
					M285.9,233.7c-9.2,12.9,19.7,5.6,22.6,17.2c1.5,5.8-11.3,11.1-23.6,12.2C255.2,265.7,254.3,240.2,285.9,233.7z"/>
			</g>
		</g>
	</g>
</g>
</svg>
